<svg xmlns="http://www.w3.org/2000/svg" aria-hidden="true"
    style="position: absolute; width: 0; height: 0; overflow: hidden;">
    <defs>
        <symbol id="arrow-rigth" viewBox="0 0 37 32">
            <path fill="#2C2C2C" style="fill: var(--color1, #000)"
                d="M15.69 3.629c-0.252 0.26-0.306 0.557-0.153 0.836 0.061 0.111 1.939 1.94 4.172 4.065s4.060 3.884 4.060 3.909c0 0.027-1.846 1.805-4.103 3.953s-4.122 3.951-4.145 4.007c-0.034 0.092-0.065 0.204-0.087 0.319l-0.002 0.014c-0.040 0.204-0.024 0.249 0.148 0.412 0.37 0.349 0.671 0.411 1.002 0.205 0.103-0.064 2.099-1.94 4.436-4.169s4.286-4.052 4.332-4.052 0.131-0.126 0.189-0.28c0.059-0.154 0.127-0.28 0.151-0.28s0.044-0.056 0.044-0.124c0-0.068-0.020-0.124-0.044-0.124s-0.091-0.124-0.148-0.275c-0.058-0.15-0.151-0.287-0.208-0.302s-1.993-1.831-4.304-4.035c-2.31-2.204-4.281-4.069-4.38-4.146-0.126-0.1-0.261-0.14-0.468-0.14-0.247 0-0.32 0.030-0.492 0.207z"></path>
        </symbol>
        <symbol id="arrow-left" viewBox="0 0 37 32">
            <path fill="#2C2C2C" style="fill: var(--color1, #000)"
                d="M20.684 3.563c-0.099 0.076-2.069 1.942-4.38 4.146s-4.248 4.020-4.304 4.035c-0.057 0.015-0.15 0.152-0.208 0.302s-0.124 0.275-0.148 0.275-0.044 0.056-0.044 0.124c0 0.068 0.020 0.124 0.044 0.124s0.092 0.126 0.151 0.28c0.059 0.154 0.143 0.28 0.188 0.28s1.995 1.823 4.332 4.052c2.338 2.228 4.316 4.095 4.396 4.148s0.269 0.116 0.421 0.139c0.262 0.040 0.286 0.030 0.491-0.196 0.259-0.287 0.315-0.476 0.222-0.757-0.053-0.159-1.074-1.166-4.175-4.12-2.258-2.149-4.105-3.931-4.105-3.957s1.841-1.801 4.092-3.943c2.25-2.142 4.123-3.971 4.163-4.064s0.081-0.265 0.093-0.381c0.019-0.188-0.010-0.236-0.248-0.42-0.336-0.259-0.706-0.284-0.98-0.067z"></path>
        </symbol>
        <symbol id="close" viewBox="0 0 32 32">
            <path
                d="M32 3.223 28.777 0 16 12.777 3.223 0 0 3.223 12.777 16 0 28.777 3.223 32 16 19.223 28.777 32 32 28.777 19.223 16 32 3.223z" />
        </symbol>
        <symbol id="stars" viewBox="0 0 202 32">
            <path fill="#ffe550" style="fill: var(--color1, #ffe550)"
                d="M15.421 1.037c0.584-1.383 2.575-1.383 3.159 0l3.449 8.164c0.247 0.583 0.804 0.982 1.443 1.032l8.952 0.707c1.517 0.12 2.132 1.983 0.976 2.958l-6.821 5.752c-0.487 0.411-0.7 1.056-0.551 1.67l2.084 8.6c0.353 1.457-1.257 2.609-2.556 1.828l-7.664-4.609c-0.547-0.329-1.236-0.329-1.783 0l-7.664 4.609c-1.299 0.781-2.909-0.371-2.556-1.828l2.084-8.6c0.149-0.614-0.064-1.259-0.551-1.67l-6.821-5.752c-1.156-0.975-0.541-2.838 0.976-2.958l8.952-0.707c0.639-0.050 1.196-0.449 1.443-1.032l3.449-8.164z"></path>
            <path fill="#ffe550" style="fill: var(--color1, #ffe550)"
                d="M57.421 1.037c0.584-1.383 2.575-1.383 3.159 0l3.449 8.164c0.247 0.583 0.804 0.982 1.443 1.032l8.952 0.707c1.517 0.12 2.132 1.983 0.976 2.958l-6.821 5.752c-0.487 0.411-0.7 1.056-0.551 1.67l2.084 8.6c0.353 1.457-1.257 2.609-2.556 1.828l-7.664-4.609c-0.548-0.329-1.236-0.329-1.783 0l-7.664 4.609c-1.299 0.781-2.909-0.371-2.556-1.828l2.084-8.6c0.149-0.614-0.064-1.259-0.551-1.67l-6.821-5.752c-1.156-0.975-0.541-2.838 0.976-2.958l8.952-0.707c0.639-0.050 1.196-0.449 1.443-1.032l3.449-8.164z"></path>
            <path fill="#ffe550" style="fill: var(--color1, #ffe550)"
                d="M99.421 1.037c0.584-1.383 2.575-1.383 3.159 0l3.449 8.164c0.247 0.583 0.804 0.982 1.443 1.032l8.952 0.707c1.517 0.12 2.132 1.983 0.976 2.958l-6.821 5.752c-0.487 0.411-0.7 1.056-0.551 1.67l2.084 8.6c0.353 1.457-1.257 2.609-2.556 1.828l-7.664-4.609c-0.548-0.329-1.236-0.329-1.783 0l-7.664 4.609c-1.299 0.781-2.909-0.371-2.556-1.828l2.084-8.6c0.149-0.614-0.064-1.259-0.551-1.67l-6.821-5.752c-1.156-0.975-0.541-2.838 0.976-2.958l8.952-0.707c0.639-0.050 1.196-0.449 1.443-1.032l3.449-8.164z"></path>
            <path fill="#ffe550" style="fill: var(--color1, #ffe550)"
                d="M141.421 1.037c0.584-1.383 2.575-1.383 3.159 0l3.449 8.164c0.247 0.583 0.804 0.982 1.443 1.032l8.952 0.707c1.517 0.12 2.132 1.983 0.976 2.958l-6.821 5.752c-0.487 0.411-0.7 1.056-0.551 1.67l2.084 8.6c0.353 1.457-1.257 2.609-2.556 1.828l-7.664-4.609c-0.548-0.329-1.236-0.329-1.783 0l-7.664 4.609c-1.299 0.781-2.909-0.371-2.556-1.828l2.084-8.6c0.149-0.614-0.064-1.259-0.551-1.67l-6.821-5.752c-1.156-0.975-0.541-2.838 0.976-2.958l8.952-0.707c0.639-0.050 1.196-0.449 1.443-1.032l3.449-8.164z"></path>
            <path fill="#ffe550" style="fill: var(--color1, #ffe550)"
                d="M183.421 1.037c0.584-1.383 2.575-1.383 3.159 0l3.449 8.164c0.247 0.583 0.804 0.982 1.443 1.032l8.953 0.707c1.516 0.12 2.132 1.983 0.976 2.958l-6.821 5.752c-0.487 0.411-0.7 1.056-0.551 1.67l2.084 8.6c0.353 1.457-1.257 2.609-2.556 1.828l-7.664-4.609c-0.548-0.329-1.236-0.329-1.783 0l-7.664 4.609c-1.299 0.781-2.909-0.371-2.556-1.828l2.084-8.6c0.149-0.614-0.064-1.259-0.551-1.67l-6.821-5.752c-1.156-0.975-0.541-2.838 0.976-2.958l8.952-0.707c0.639-0.050 1.196-0.449 1.443-1.032l3.449-8.164z"></path>
        </symbol>
        <symbol id="rocket" viewBox="0 0 32 32">
            <path fill="#7eb101"
                d="m7.233 13.633 3.533 1.5c.4-.8.828-1.589 1.283-2.367s.939-1.522 1.45-2.233L10.866 10l-3.633 3.633zm5.134 2.7 4.433 4.433c1.267-.578 2.456-1.233 3.567-1.967s2.011-1.444 2.7-2.133c1.8-1.8 3.122-3.644 3.967-5.533s1.3-4.022 1.367-6.4c-2.378.067-4.511.522-6.4 1.367s-3.733 2.167-5.533 3.967c-.689.689-1.4 1.589-2.133 2.7s-1.389 2.3-1.967 3.567zm7.633-3.2c-.444-.444-.667-.995-.667-1.65s.222-1.206.667-1.65.994-.667 1.65-.667c.656 0 1.206.222 1.65.667s.667.994.667 1.65c0 .655-.222 1.206-.667 1.65s-.994.667-1.65.667-1.206-.222-1.65-.667zM19.5 25.9l3.633-3.633-.533-2.633c-.711.511-1.456.994-2.233 1.45S18.8 21.967 18 22.367l1.5 3.533zM30.367 2.767c.2 3.022-.178 5.778-1.133 8.267s-2.533 4.833-4.733 7.033l-.133.133.733 3.667c.067.333.05.656-.05.967s-.272.589-.517.833l-5.7 5.733-2.833-6.6-5.667-5.667-6.6-2.833 5.733-5.7c.244-.244.522-.417.833-.517s.633-.117.967-.05l3.667.733c.022-.022.044-.039.067-.05s.044-.028.067-.05c2.2-2.2 4.544-3.783 7.033-4.75s5.244-1.35 8.267-1.15zm-24.4 18.4c.778-.778 1.728-1.172 2.85-1.183s2.072.372 2.85 1.15c.778.778 1.161 1.728 1.15 2.85s-.406 2.072-1.183 2.85c-.578.578-1.472 1.055-2.683 1.433s-3.028.733-5.45 1.067c.333-2.422.683-4.244 1.05-5.467s.839-2.122 1.417-2.7zm1.4 1.433c-.311.333-.589.856-.833 1.567s-.456 1.622-.633 2.733c1.111-.178 2.022-.389 2.733-.633s1.233-.522 1.567-.833c.422-.378.639-.85.65-1.417s-.183-1.061-.583-1.483c-.422-.4-.917-.595-1.483-.583s-1.039.228-1.417.65z"
                style="fill: var(--color1, #7eb101)" />
        </symbol>
        <symbol id="touch" viewBox="0 0 32 32">
            <path fill="#7eb101"
                d="M15.5 1.333c2.022 0 3.75.706 5.183 2.117s2.15 3.128 2.15 5.15c0 1.156-.25 2.244-.75 3.267s-1.206 1.889-2.117 2.6h-1.133V12.8c.644-.511 1.139-1.133 1.483-1.867s.517-1.511.517-2.333c0-1.467-.522-2.711-1.567-3.733s-2.3-1.533-3.767-1.533-2.722.511-3.767 1.533-1.567 2.267-1.567 3.733c0 .822.172 1.6.517 2.333s.839 1.356 1.483 1.867v2.4c-1.244-.645-2.222-1.556-2.933-2.733S8.165 10 8.165 8.6c0-2.022.717-3.739 2.15-5.15s3.161-2.117 5.183-2.117zm-1.266 28c-.378 0-.733-.072-1.067-.217s-.622-.339-.867-.583l-6.867-6.867L7.3 19.733c.311-.311.661-.55 1.05-.717s.794-.194 1.217-.083l2.6.6V8.666c0-.933.322-1.722.967-2.367s1.433-.967 2.367-.967c.933 0 1.722.322 2.367.967s.967 1.433.967 2.367v5.733h.867c.111 0 .211.022.3.067s.189.089.3.133l4.933 2.4c.533.244.928.639 1.183 1.183s.328 1.106.217 1.683l-1.2 7.267c-.111.645-.422 1.172-.933 1.583s-1.089.617-1.733.617h-8.533zm-.267-2h9.367l1.433-8.3-6.1-3.033h-1.833V8.667c0-.4-.122-.722-.367-.967s-.567-.367-.967-.367-.722.122-.967.367c-.245.244-.367.567-.367.967v13.3l-5.133-1.1-.767.767 5.7 5.7zm9.367 0z"
                style="fill: var(--color1, #7eb101)" />
        </symbol>
        <symbol id="logo" viewBox="0 0 41 32">
            <path fill="#ffe550"
                d="M14.121 6.486c1.014-1.989 3.864-1.989 4.878 0l1.263 2.476a2.738 2.738 0 0 0 2.008 1.458l2.759.439c2.203.351 3.082 3.042 1.508 4.62l-1.986 1.991a2.728 2.728 0 0 0-.764 2.349l.436 2.769c.347 2.202-1.957 3.868-3.947 2.854l-2.472-1.259a2.744 2.744 0 0 0-2.489 0l-2.472 1.259c-1.991 1.014-4.295-.652-3.947-2.854l.436-2.769a2.726 2.726 0 0 0-.764-2.349l-1.986-1.991c-1.574-1.577-.695-4.269 1.508-4.62l2.759-.439a2.738 2.738 0 0 0 2.008-1.458l1.263-2.476z"
                style="fill: var(--color1, #ffe550)" />
            <path fill="#2c2c2c"
                d="m1.118 20.356-.021.005c.003.074-.001.374-.012.9-.003.524-.005.869-.003 1.033 0 .157-.004.285-.01.384l.001.336c-.002.12-.008.219-.02.296l-.019.206c-.014.13-.042.201-.085.211-.092.022-.236-.049-.432-.212-.198-.17-.312-.319-.342-.446s-.037-1.061-.021-2.8c.023-1.741-.022-2.885-.137-3.434a.421.421 0 0 1 .014-.273c.036-.166.22-.321.553-.467.34-.148.847-.301 1.522-.461.682-.161 1.222-.252 1.623-.272.407-.022.626.031.656.159.02.085-.026.159-.138.223s-.212.117-.299.161l-.35.139c-.146.049-.281.096-.405.141a10.6 10.6 0 0 0-.49.161c-.194.068-.373.133-.539.195-.167.055-.392.134-.675.238s-.466.17-.549.197c.012.02.023.051.033.093.079.333.121 1.131.127 2.393.445-.083.915-.205 1.409-.367.501-.163.809-.259.922-.286.27-.064.418-.039.445.074.052.22-.213.477-.796.772a8.743 8.743 0 0 1-1.96.699zM8.071 18.397a2.015 2.015 0 0 0-.278-.652c-.13-.201-.281-.334-.454-.397-.458.251-.791.729-.999 1.437-.202.699-.239 1.32-.11 1.866s.344.853.646.924c.488-.22.839-.67 1.053-1.349.22-.688.267-1.297.141-1.828zm-2.779.758a4.08 4.08 0 0 1 .648-1.589c.319-.457.688-.735 1.107-.834.426-.101.824-.004 1.193.29.368.287.613.689.735 1.206.121.51.12 1.063-.001 1.661a3.793 3.793 0 0 1-.719 1.573c-.351.45-.771.732-1.261.848-.362.086-.703-.009-1.023-.285s-.54-.669-.661-1.179c-.122-.517-.128-1.08-.017-1.69zM12.896 17.255a2.015 2.015 0 0 0-.278-.652c-.13-.201-.281-.334-.454-.397-.458.251-.791.729-.999 1.437-.202.699-.239 1.32-.11 1.866s.344.853.646.924c.488-.22.839-.67 1.053-1.349.22-.688.267-1.297.141-1.828zm-2.778.758a4.08 4.08 0 0 1 .648-1.589c.319-.457.688-.735 1.107-.834.426-.101.824-.004 1.193.29.368.287.613.689.735 1.206.121.51.12 1.064-.001 1.661a3.793 3.793 0 0 1-.719 1.573c-.351.45-.771.732-1.261.848-.362.086-.703-.009-1.023-.285s-.54-.669-.661-1.179c-.122-.517-.128-1.08-.017-1.69zM17.933 11.014c.114-.027.277.047.491.22.219.165.35.34.394.524s.079.729.106 1.635c.025.899.029 1.837.013 2.813-.022 2.189-.115 3.303-.278 3.342-.099.023-.224-.011-.373-.102-.144-.101-.227-.197-.248-.289s-.04-.282-.056-.57c-.528.873-1.052 1.371-1.57 1.493-.312.074-.63-.001-.953-.223-.315-.225-.509-.489-.581-.794-.104-.439-.11-.987-.018-1.645.097-.666.311-1.3.641-1.902s.747-.962 1.251-1.081c.504-.119.927.099 1.268.654.007-1.587-.075-2.821-.245-3.7-.05-.213.003-.337.159-.374zm.062 5.494c-.09-.382-.234-.689-.431-.919-.19-.232-.377-.326-.562-.282-.305.072-.573.334-.804.785s-.384.944-.46 1.478c-.071.525-.064.965.02 1.319.03.128.101.219.211.275s.23.069.358.039c.277-.066.603-.352.978-.86a3.562 3.562 0 0 0 .701-1.647l.002-.135-.013-.053zM24.793 15.864c.137.581-.01 1.132-.441 1.653a3.04 3.04 0 0 1-1.672 1.013c-.674.16-1.273.118-1.795-.125-.524-.25-.823-.531-.896-.842-.05-.212-.011-.334.116-.364.114-.027.377.09.792.351.156.09.353.163.592.219.245.054.488.053.73-.004a2.394 2.394 0 0 0 1.23-.695c.33-.347.46-.67.39-.967-.045-.191-.231-.405-.557-.642s-.676-.45-1.05-.638c-.369-.197-.717-.417-1.045-.661s-.512-.455-.554-.632c-.042-.177-.051-.373-.027-.588s.068-.379.131-.491c.205-.37.568-.752 1.09-1.144.529-.394.992-.639 1.39-.733.206-.049.396-.023.57.078s.278.226.313.375c.017.071-.044.145-.183.223s-.353.188-.641.331a5.218 5.218 0 0 0-.744.423c-.743.505-1.08.902-1.011 1.193.037.156.555.493 1.555 1.012a5.28 5.28 0 0 1 1.091.763c.348.299.557.597.628.895zM27.238 16.396c.032.135.126.183.282.146.27-.064.579-.215.927-.455.354-.248.552-.377.594-.387.128-.03.208.022.239.156.049.205-.108.493-.471.863-.355.368-.707.594-1.055.676-.341.081-.647.056-.917-.075-.272-.137-.432-.305-.479-.504s-.064-.46-.051-.785c.012-.332.036-.768.073-1.308.043-.549.071-1 .084-1.355-.315.157-.53.249-.643.276s-.241-.003-.381-.089c-.135-.095-.215-.196-.24-.302-.04-.17.383-.442 1.269-.816a7.588 7.588 0 0 0-.178-1.607c-.05-.213-.004-.335.138-.369.121-.029.288.014.503.128.213.107.342.256.387.447s.064.542.058 1.052c.396-.131.715-.225.957-.282.426-.101.661-.059.704.125.025.106-.071.223-.289.349-.21.125-.667.349-1.371.672-.017.595-.053 1.28-.11 2.057-.058.769-.069 1.232-.032 1.387zM32.002 10.826c.319-.076.653.018.999.28.345.255.549.513.611.775.06.255.033.538-.08.849.11.086.175.168.193.246.047.198.081.549.103 1.053.029.502.05.83.064.983a3.4 3.4 0 0 1 .05.639c.013.184-.03.287-.129.311-.128.03-.26-.054-.397-.254-.132-.208-.246-.488-.344-.838-.443.95-.934 1.489-1.473 1.616-.327.077-.682.016-1.067-.185-.379-.209-.604-.463-.675-.76-.101-.425-.068-.986.097-1.683.163-.704.436-1.36.817-1.966s.792-.962 1.232-1.066zm.932 1.754c-.156-.659-.365-.957-.628-.895-.277.066-.553.34-.828.824-.277.477-.485.994-.623 1.55s-.173.98-.105 1.27c.028.12.102.208.219.262a.609.609 0 0 0 .377.023c.334-.079.657-.391.971-.937.312-.552.473-1.17.484-1.853-.004-.111.041-.189.136-.234l-.002-.011z"
                style="fill: var(--color2, #2c2c2c)" />
            <path fill="#bbf330"
                d="M30.75 19.975a.917.917 0 0 0-.644.603c-1.907 5.652-7.247 9.717-13.529 9.717a14.22 14.22 0 0 1-9.835-3.933.922.922 0 0 0-.853-.234c-.64.159-.883.932-.409 1.39a15.924 15.924 0 0 0 11.097 4.483c7.079 0 13.084-4.605 15.186-10.986.206-.626-.372-1.198-1.013-1.04zM1.865 14.148a.908.908 0 0 0 .668-.725C3.745 6.754 9.577 1.705 16.578 1.705c4.553 0 8.612 2.135 11.227 5.463a.91.91 0 0 0 .93.33c.585-.145.85-.823.481-1.298C26.291 2.428 21.718 0 16.578 0 8.695 0 2.145 5.71.831 13.224c-.104.593.448 1.07 1.034.925zM40.615 5.331c-3.778 7.241-5.437 2.465-10.755 5.271.532-8.406 6.165-3.291 10.755-5.271z"
                style="fill: var(--color3, #bbf330)" />
        </symbol>
        <symbol id="big-mobile-down" viewBox="0 0 20 32">
            <path fill="#ffe550" d="M0 0h19.974v32C14.67 28.925 5.304 28.925 0 32V0z"
                style="fill: var(--color1, #ffe550)" />
        </symbol>
        <symbol id="big-mobile-up" viewBox="0 0 15 32">
            <path fill="#ffe550" d="M0 3.404c3.275-4.539 11.354-4.539 14.629 0V32H0V3.404z"
                style="fill: var(--color1, #ffe550)" />
        </symbol>
        <symbol id="desktop-down" viewBox="0 0 63 32">
            <path fill="#ffe550" d="M0 29.091c22.677-11.646 50.275 17.005 63.308-7.022V0H0v29.091z"
                style="fill: var(--color1, #ffe550)" />
        </symbol>

        <symbol id="mobile-down" viewBox="0 0 13 32">
            <path fill="#ffe550" d="M0 0h13.316v32C9.78 30.34 3.536 30.34 0 32V0z"
                style="fill: var(--color1, #ffe550)" />
        </symbol>
        <symbol id="mobile-up" viewBox="0 0 10 32">
            <path fill="#ffe550" d="M0 1.829c2.59-2.438 7.163-2.438 9.752 0V32H0V1.829z"
                style="fill: var(--color1, #ffe550)" />
        </symbol>
        <symbol id="tablet-down" viewBox="0 0 44 32">
            <path fill="#ffe550" d="M0 30.417c15.89-6.339 35.229 9.255 44.361-3.822V0H0v30.417z"
                style="fill: var(--color1, #ffe550)" />
        </symbol>
        <symbol id="tablet-up" viewBox="0 0 22 32">
            <path fill="#ffe550" d="M0 3.705C9.358-1.614 16.83 9.614 21.558 0v32H0V3.705z"
                style="fill: var(--color1, #ffe550)" />
        </symbol>
    </defs>
</svg>